<svg xmlns="http://www.w3.org/2000/svg" width="128" height="128" viewBox="0 0 128 128">
  <title>BIRTHDAY CUPCAKE</title>
  <g>
    <path d="M75.118,87.972A14.317,14.317,0,0,1,64,82.689a14.325,14.325,0,0,1-22.541-.408,13.663,13.663,0,0,1-9.244,3.6l8.106,35.812H87.679l8.106-35.812a13.661,13.661,0,0,1-9.244-3.6A14.309,14.309,0,0,1,75.118,87.972Z" fill="#eb5569"/>
    <path d="M96.841,58.474A13.7,13.7,0,0,0,80.549,48.1a18.879,18.879,0,0,0-33.1,0A13.7,13.7,0,0,0,31.159,58.474a13.723,13.723,0,1,0,10.3,23.807A14.325,14.325,0,0,0,64,82.689a14.325,14.325,0,0,0,22.541-.408,13.719,13.719,0,1,0,10.3-23.807Z" fill="#fcd1e8"/>
    <path d="M60.33,21.62a5.6,5.6,0,0,0,7.34,0c1.828-1.628,2.75-4.165,2.1-7.511C68.879,9.554,64,6.307,64,6.307s-4.879,3.247-5.767,7.8C57.58,17.455,58.5,19.992,60.33,21.62Z" fill="#ffb65f"/>
    <path d="M58.024,29.506V54.5a8.781,8.781,0,0,1,7.35,4.523,8.67,8.67,0,0,1,4.6-2.249V29.506Z" fill="#f07281"/>
    <path d="M52.16,121.69H40.32L32.21,85.88a13.662,13.662,0,0,0,9.25-3.6,14.372,14.372,0,0,0,6.65,4.87Z" fill="#f07281"/>
    <path d="M79.89,87.15l-4.05,34.54H64v-39a14.332,14.332,0,0,0,15.89,4.46Z" fill="#f07281"/>
    <g>
      <path d="M95.134,58.86a1.751,1.751,0,0,0,1.7,1.365,1.781,1.781,0,0,0,.388-.043,1.752,1.752,0,0,0,1.321-2.093,15.415,15.415,0,0,0-2.044-4.9,1.75,1.75,0,0,0-2.95,1.883A11.905,11.905,0,0,1,95.134,58.86Z"/>
      <path d="M111.265,72.151a15.434,15.434,0,0,0-5.5-11.827A1.75,1.75,0,0,0,103.506,63,11.968,11.968,0,1,1,87.721,80.988a1.75,1.75,0,0,0-2.574.235,12.576,12.576,0,0,1-19.792.36,1.749,1.749,0,0,0-2.711,0,12.574,12.574,0,0,1-19.791-.359,1.75,1.75,0,0,0-2.574-.235A11.969,11.969,0,1,1,31.292,60.22a1.751,1.751,0,0,0,1.574-1.36A11.906,11.906,0,0,1,44.54,49.53a12.048,12.048,0,0,1,2.542.277,1.746,1.746,0,0,0,1.9-.867,17.113,17.113,0,0,1,7.29-7.03V52.844a10.466,10.466,0,0,0-4.332,1.6,1.75,1.75,0,0,0,1.912,2.931,7.035,7.035,0,0,1,9.99,2.491,1.748,1.748,0,0,0,1.258.879,1.67,1.67,0,0,0,.272.021,1.75,1.75,0,0,0,1.2-.471,6.926,6.926,0,0,1,8.77-.588,1.75,1.75,0,1,0,2.035-2.848,10.368,10.368,0,0,0-5.648-1.927V41.91a17.113,17.113,0,0,1,7.29,7.03,1.744,1.744,0,0,0,1.9.867,11.941,11.941,0,0,1,6.231.3,1.75,1.75,0,1,0,1.078-3.33,15.369,15.369,0,0,0-6.787-.614,20.571,20.571,0,0,0-9.714-8.1v-8.56a1.751,1.751,0,0,0-1.75-1.75H65.75V24.5a7.108,7.108,0,0,0,3.083-1.576c2.438-2.17,3.379-5.421,2.652-9.154C70.468,8.562,65.193,5,64.97,4.85a1.751,1.751,0,0,0-1.94,0c-.223.15-5.5,3.712-6.515,8.923-.727,3.733.214,6.984,2.651,9.154A7.117,7.117,0,0,0,62.25,24.5v3.253H58.024a1.751,1.751,0,0,0-1.75,1.75v8.56a20.577,20.577,0,0,0-9.714,8.1A15.436,15.436,0,0,0,29.777,56.877,15.469,15.469,0,0,0,30.8,87.559l3.7,16.364a1.752,1.752,0,0,0,1.706,1.364,1.781,1.781,0,0,0,.388-.043,1.751,1.751,0,0,0,1.32-2.094L34.369,87.471a15.414,15.414,0,0,0,6.864-2.755,16,16,0,0,0,5.259,3.69l3.7,31.537H41.719l-1.73-7.645a1.75,1.75,0,1,0-3.414.773l2.039,9.008a1.75,1.75,0,0,0,1.707,1.364H87.679a1.75,1.75,0,0,0,1.707-1.364L97.2,87.559A15.5,15.5,0,0,0,111.265,72.151ZM59.951,14.443c.513-2.63,2.74-4.833,4.049-5.93,1.31,1.1,3.536,3.3,4.049,5.93.489,2.506-.045,4.536-1.543,5.87a3.865,3.865,0,0,1-5.012,0C60,18.979,59.462,16.949,59.951,14.443Zm8.275,16.813V55.4a10.345,10.345,0,0,0-2.458,1.119,10.542,10.542,0,0,0-5.994-3.556v-21.7Zm6.892,58.466a16.158,16.158,0,0,0,2.74-.25l-3.576,30.471H65.75V86.7A16.011,16.011,0,0,0,75.118,89.722Zm-24.976-.25A15.815,15.815,0,0,0,62.25,86.694v33.249H53.717Zm36.139,30.471H77.807l3.7-31.537a16,16,0,0,0,5.259-3.69,15.414,15.414,0,0,0,6.864,2.755Z"/>
      <path d="M61,69.639a2.349,2.349,0,1,0,2.349,2.349A2.349,2.349,0,0,0,61,69.639Z"/>
      <path d="M39.732,67a2.349,2.349,0,1,0,2.349-2.349A2.349,2.349,0,0,0,39.732,67Z"/>
      <path d="M84.919,66.651A2.349,2.349,0,1,0,87.268,69,2.349,2.349,0,0,0,84.919,66.651Z"/>
    </g>
  </g>
</svg>
